<svg width="75" height="20" viewBox="0 0 75 20" xmlns="http://www.w3.org/2000/svg">
  <style><![CDATA[
    #DOT { animation: swap 5s cubic-bezier(.4, .0, .6, 1) infinite alternate; }
    @keyframes swap {
      from { fill: #24BBF9; }
      40% { fill: #24BBF9; }
      60% { fill: #fd4; }
      to { fill: #fd4; }
    }
  ]]></style>
  <path id="100M" d="M0 2.645l.783 3.092 2.983-.736v13.475h3.718V1.172H4.916L0 2.645zM26.266 9.86c0 5.007-3.057 8.91-7.63 8.91s-7.582-3.854-7.582-8.861c0-5.007 3.057-8.91 7.63-8.91 4.574 0 7.582 3.854 7.582 8.86zm-3.864.049c0-3.142-1.492-5.498-3.766-5.498-2.275 0-3.718 2.283-3.718 5.449s1.492 5.498 3.767 5.498c2.274 0 3.717-2.307 3.717-5.449zm21.718-.05c0 5.008-3.057 8.91-7.63 8.91-4.574 0-7.582-3.853-7.582-8.86S31.965 1 36.538 1s7.582 3.854 7.582 8.86zm-3.865.05c0-3.142-1.491-5.498-3.766-5.498-2.274 0-3.717 2.283-3.717 5.449s1.492 5.498 3.766 5.498c2.275 0 3.717-2.307 3.717-5.449zm24.36 8.566V1.295h-4.06l-4.5 7.265-4.5-7.265h-4.06v17.181h3.693V7.333l4.769 7.265h.097l4.818-7.339v11.217h3.742z" fill="#273446"/>
  <path id="DOT" fill="#24BBF9" d="M68 12h6.522v6.545H68z"/>
</svg>
