<svg width="48" height="48" viewBox="0 0 48 48" xmlns="http://www.w3.org/2000/svg" style="background:#003c55">
  <path fill="#FFF" fill-rule="evenodd" d="M32.42 30.08L21.46 17.92h-2.64V46h7.32V33.52l5.92 6.24h.8l5.96-6.24V46h7.32V17.92h-2.56L32.42 30.08zm9.88 13.16V25.2l-9.88 10.32L22.7 25.2v18.04h-.4V24.68h.52l9.6 10.24 9.72-10.24h.56v18.56h-.4zM13.15 4.38H5.21v-2.2H2.17v7.9h3.04V7.86h10.96V2.48h-3.02v1.9zM3.69 6.2v2.54h-.16V3.52h.16v2.5h10.96V3.8h.16v2.4H3.69zm12.74 10.66c0-2.84-1.76-5.22-4.82-5.22h-4.9c-3.06 0-4.82 2.38-4.82 5.22 0 2.9 1.76 5.26 4.82 5.26h4.9c3.06 0 4.82-2.36 4.82-5.26zm-13.04 0c0-1.96 1.26-3.64 3.4-3.64h4.76c2.16 0 3.38 1.68 3.38 3.64 0 2.02-1.22 3.68-3.38 3.68H6.79c-2.14 0-3.4-1.66-3.4-3.68zm1.68 0c0-1.02.58-1.82 1.72-1.82h4.76c1.1 0 1.68.8 1.68 1.82 0 1.06-.58 1.88-1.68 1.88H6.79c-1.14 0-1.72-.82-1.72-1.88zm9.68 0c0-1.86-1.14-3.42-3.2-3.42H6.79c-2.04 0-3.22 1.56-3.22 3.42 0 1.92 1.18 3.44 3.22 3.44h4.76c2.06 0 3.2-1.52 3.2-3.44zM16.43 30c0-2.84-1.76-5.22-4.82-5.22h-4.9c-3.06 0-4.82 2.38-4.82 5.22 0 2.9 1.76 5.26 4.82 5.26h4.9c3.06 0 4.82-2.36 4.82-5.26zM3.39 30c0-1.96 1.26-3.64 3.4-3.64h4.76c2.16 0 3.38 1.68 3.38 3.64 0 2.02-1.22 3.68-3.38 3.68H6.79c-2.14 0-3.4-1.66-3.4-3.68zm1.68 0c0-1.02.58-1.82 1.72-1.82h4.76c1.1 0 1.68.8 1.68 1.82 0 1.06-.58 1.88-1.68 1.88H6.79c-1.14 0-1.72-.82-1.72-1.88zm9.68 0c0-1.86-1.14-3.42-3.2-3.42H6.79c-2.04 0-3.22 1.56-3.22 3.42 0 1.92 1.18 3.44 3.22 3.44h4.76c2.06 0 3.2-1.52 3.2-3.44z"/>
</svg>
