<svg width="128" height="128" viewBox="0 0 128 128" xmlns="http://www.w3.org/2000/svg">
  <path fill="#03788E" fill-rule="evenodd" d="M73.854 5.37H54.255V-.06h-7.504v19.5h7.504v-5.48h27.053V.68h-7.454v4.69zm-23.35 4.493v6.27h-.396V3.248h.395v6.17h27.053V3.94h.395v5.924H50.503zM81.95 36.176c0-7.01-4.344-12.885-11.898-12.885H57.958c-7.554 0-11.898 5.875-11.898 12.885 0 7.158 4.344 12.984 11.898 12.984h12.094c7.554 0 11.898-5.826 11.898-12.984zm-32.187 0c0-4.838 3.11-8.985 8.392-8.985h11.75c5.331 0 8.342 4.147 8.342 8.985 0 4.986-3.01 9.083-8.343 9.083H58.155c-5.282 0-8.392-4.097-8.392-9.083zm4.146 0c0-2.518 1.432-4.493 4.246-4.493h11.75c2.715 0 4.146 1.975 4.146 4.493 0 2.616-1.431 4.64-4.147 4.64H58.155c-2.814 0-4.246-2.024-4.246-4.64zm23.894 0c0-4.591-2.814-8.442-7.899-8.442H58.155c-5.035 0-7.948 3.85-7.948 8.442 0 4.74 2.913 8.491 7.948 8.491h11.75c5.084 0 7.898-3.752 7.898-8.491zM81.95 68.61c0-7.01-4.344-12.885-11.898-12.885H57.958c-7.554 0-11.898 5.875-11.898 12.885 0 7.158 4.344 12.984 11.898 12.984h12.094c7.554 0 11.898-5.826 11.898-12.984zm-32.187 0c0-4.838 3.11-8.985 8.392-8.985h11.75c5.331 0 8.342 4.147 8.342 8.985 0 4.986-3.01 9.084-8.343 9.084H58.155c-5.282 0-8.392-4.098-8.392-9.084zm4.146 0c0-2.518 1.432-4.492 4.246-4.492h11.75c2.715 0 4.146 1.974 4.146 4.492 0 2.617-1.431 4.64-4.147 4.64H58.155c-2.814 0-4.246-2.023-4.246-4.64zm23.894 0c0-4.59-2.814-8.442-7.899-8.442H58.155c-5.035 0-7.948 3.851-7.948 8.442 0 4.74 2.913 8.491 7.948 8.491h11.75c5.084 0 7.898-3.752 7.898-8.49zM66.4 106.623l15.008-13.527v-3.258H46.751v9.034h15.403l-7.702 7.307v.987l7.702 7.356H46.75v9.034h34.656v-3.16l-15.008-13.773zm-16.242 12.194h22.265l-12.737-12.194 12.737-11.996H50.157v-.494h22.907v.642l-12.638 11.848 12.638 11.996v.691H50.157v-.493z"/>
</svg>
