<svg width="199" height="36" viewBox="0 0 199 36" xmlns="http://www.w3.org/2000/svg"><title>100Metres</title><path d="M89.172 21.223L99.16 10.34h2.292v25.132H94.9v-11.17l-5.334 5.585h-.716l-5.299-5.585v11.17H77V10.34h2.363l9.81 10.883zm8.843 11.779h.358V16.39h-.501l-8.7 9.165-8.592-9.165h-.465v16.612h.358V16.856l8.7 9.236 8.842-9.236v16.146zm9.657-19.941v19.762h10.526v-.358h-10.132V22.69h9.094v-.358h-9.094V13.42h9.81v-.358h-10.204zm12.638-2.65v5.729h-9.272v3.544h8.52v5.692h-8.52v4.404h9.594v5.692h-15.967v-25.06h15.645zm6.364 5.729h-6.158v-5.728h18.616v5.728h-6.121v19.332h-6.337V16.14zm3.007 16.933h.358c0-6.587-.036-13.103-.071-19.654h6.73v-.322h-13.783v.322h6.766v19.654zm21.257-19.618c7.447 0 7.554 11.563 0 11.563h-7.697V13.455h7.697zm-7.697 11.957h7.697c.25 0 .501-.036.716-.036l4.654 7.733h.43l-3.616-5.907-1.074-1.897c6.766-1.11 6.551-12.172-1.11-12.172h-8.055v19.94h.358v-7.661zm12.96 1.181l4.904 7.948v.93h-7.16l-4.296-7.374h-3.33v7.375h-6.407v-25.06h10.99c9.845.036 11.635 11.885 5.299 16.181zm-5.299-4.26c3.473 0 3.652-6.157 0-6.193-1.503-.036-3.078 0-4.582 0v6.193h4.582zm13.918-9.272v19.762h10.526v-.358h-10.132V22.69h9.093v-.358h-9.093V13.42h9.81v-.358H164.82zm12.638-2.65v5.729h-9.272v3.544h8.52v5.692h-8.52v4.404h9.594v5.692h-15.967v-25.06h15.645zm7.116 17.4c0 3.186 7.84 3.114 7.84.179 0-1.755-2.077-2.041-4.583-2.184-5.441-.394-9.021-2.256-9.093-7.697-.215-10.812 19.26-10.812 19.118 0h-6.087c0-3.33-6.73-3.043-6.945-.072-.143 1.898 1.719 2.291 3.974 2.542 4.976.537 9.845 1.181 9.845 7.446 0 10.526-20.406 10.812-20.263-.214h6.194zm9.415-11.993h.466c-2.686-5.048-13.032-3.76-12.889 2.29.108 4.297 3.115 4.941 6.767 5.228 3.472.25 6.945.322 6.945 4.654 0 5.549-10.096 6.659-12.924 2.112h-.43c2.578 5.12 13.748 3.974 13.748-2.112 0-4.44-3.616-4.762-7.268-5.048-3.508-.25-6.408-.824-6.408-4.833-.036-5.62 9.308-6.766 11.993-2.291zM5.296 7.895H.722V.625h12.95v26.383h5.345v7.318H0v-7.318h5.296V7.895zm4.38 22.772V3.9H3.9v.385h5.343v26.382H3.226v.385H15.79v-.385H9.677zM31.727 0c6.981 0 12.662 4.237 12.662 11.602v11.796C44.388 30.763 38.707 35 31.726 35c-6.836 0-12.565-4.237-12.565-11.602V11.602C19.16 4.237 24.89 0 31.726 0zm0 31.39c4.863 0 8.859-3.034 8.859-8.185V11.747c0-5.2-3.996-8.136-8.859-8.136-4.718 0-8.762 2.936-8.762 8.136v11.458c0 5.151 4.044 8.184 8.762 8.184zm0-4.045c2.552 0 4.526-1.396 4.526-4.14V11.747c0-2.648-1.974-4.044-4.526-4.044-2.455 0-4.38 1.396-4.38 4.044v11.458c0 2.744 1.925 4.14 4.38 4.14zm0-23.301c4.622 0 8.28 2.744 8.28 7.703v11.458c0 4.91-3.658 7.751-8.28 7.751-4.477 0-8.232-2.84-8.232-7.751V11.747c0-4.959 3.755-7.703 8.232-7.703zM59.746 0c6.98 0 12.661 4.237 12.661 11.602v11.796c0 7.365-5.68 11.602-12.661 11.602-6.837 0-12.566-4.237-12.566-11.602V11.602C47.18 4.237 52.91 0 59.746 0zm0 31.39c4.862 0 8.858-3.034 8.858-8.185V11.747c0-5.2-3.996-8.136-8.858-8.136-4.718 0-8.763 2.936-8.763 8.136v11.458c0 5.151 4.045 8.184 8.763 8.184zm0-4.045c2.551 0 4.525-1.396 4.525-4.14V11.747c0-2.648-1.974-4.044-4.525-4.044-2.456 0-4.381 1.396-4.381 4.044v11.458c0 2.744 1.925 4.14 4.38 4.14zm0-23.301c4.621 0 8.28 2.744 8.28 7.703v11.458c0 4.91-3.659 7.751-8.28 7.751-4.478 0-8.233-2.84-8.233-7.751V11.747c0-4.959 3.755-7.703 8.233-7.703z" fill="#FFF" fill-rule="evenodd"/></svg>