<svg width="256" height="37" viewBox="0 0 256 37" xmlns="http://www.w3.org/2000/svg"><title>100Metres</title><path d="M5.565 8.297H.76V.657h13.61v27.726h5.616v7.69H0v-7.69h5.565V8.297zM10.17 32.23V4.099H4.1v.404h5.615v27.726H3.39v.404h13.205v-.404h-6.426zM33.342 0c7.336 0 13.306 4.452 13.306 12.193V24.59c0 7.74-5.97 12.193-13.306 12.193-7.185 0-13.205-4.452-13.205-12.193V12.193C20.137 4.453 26.157 0 33.342 0zm0 32.987c5.11 0 9.309-3.187 9.309-8.6V12.344c0-5.464-4.2-8.55-9.31-8.55-4.958 0-9.208 3.086-9.208 8.55v12.041c0 5.414 4.25 8.601 9.209 8.601zm0-4.25c2.681 0 4.755-1.467 4.755-4.35V12.344c0-2.783-2.074-4.25-4.755-4.25-2.58 0-4.604 1.467-4.604 4.25v12.041c0 2.884 2.023 4.352 4.604 4.352zm0-24.487c4.857 0 8.702 2.884 8.702 8.095v12.041c0 5.161-3.845 8.146-8.702 8.146-4.706 0-8.652-2.985-8.652-8.146V12.345c0-5.211 3.946-8.095 8.652-8.095zM62.787 0c7.337 0 13.307 4.452 13.307 12.193V24.59c0 7.74-5.97 12.193-13.307 12.193-7.184 0-13.205-4.452-13.205-12.193V12.193C49.582 4.453 55.603 0 62.787 0zm0 32.987c5.11 0 9.31-3.187 9.31-8.6V12.344c0-5.464-4.2-8.55-9.31-8.55-4.958 0-9.208 3.086-9.208 8.55v12.041c0 5.414 4.25 8.601 9.208 8.601zm0-4.25c2.682 0 4.756-1.467 4.756-4.35V12.344c0-2.783-2.074-4.25-4.756-4.25-2.58 0-4.604 1.467-4.604 4.25v12.041c0 2.884 2.024 4.352 4.604 4.352zm0-24.487c4.858 0 8.703 2.884 8.703 8.095v12.041c0 5.161-3.845 8.146-8.703 8.146-4.705 0-8.651-2.985-8.651-8.146V12.345c0-5.211 3.946-8.095 8.651-8.095zM97.95 15.937L112.066.557h3.238v35.517h-9.258V20.288l-7.539 7.893h-1.012l-7.488-7.893v15.786h-9.259V.557h3.34l13.862 15.38zm12.497 16.646h.506V9.107h-.708L97.95 22.059 85.808 9.107h-.658v23.476h.506V9.765L97.95 22.818l12.497-13.053v22.818zm14.318-28.181V32.33h14.875v-.506h-14.318V18.012h12.85v-.506h-12.85V4.908h13.863v-.506h-14.42zm17.86-3.744v8.095h-13.104v5.009h12.042v8.044H129.52v6.223h13.56v8.045h-22.565V.658h22.11zm9.664 8.095h-8.703V.658h26.31v8.095h-8.652v27.32h-8.955V8.754zm4.25 23.93h.506c0-9.308-.051-18.517-.102-27.775h9.512v-.456h-19.479v.456h9.563v27.776zm30.71-27.725c10.524 0 10.676 16.342 0 16.342h-10.877V4.958h10.877zm-10.877 16.899h10.877c.354 0 .709-.05 1.012-.05l6.577 10.927h.608l-5.11-8.348-1.518-2.681c9.562-1.568 9.259-17.202-1.569-17.202h-11.383v28.18h.506V21.858zm18.315 1.67l6.931 11.231v1.316H191.5l-6.071-10.423h-4.705v10.423h-9.057V.658H187.2c13.913.05 16.443 16.797 7.488 22.868zm-7.488-6.021c4.907 0 5.16-8.703 0-8.753-2.125-.05-4.351 0-6.476 0v8.753h6.476zm20.339-13.104V32.33h14.874v-.506h-14.318V18.012h12.851v-.506h-12.85V4.908h13.862v-.506h-14.42zm17.86-3.744v8.095h-13.105v5.009h12.042v8.044h-12.042v6.223h13.56v8.045h-22.565V.658h22.11zm10.725 24.589c0 4.502 11.08 4.401 11.08.253 0-2.48-2.934-2.884-6.476-3.087-7.69-.556-12.75-3.187-12.85-10.878-.304-15.279 27.22-15.279 27.017 0h-8.601c0-4.705-9.512-4.3-9.815-.1-.203 2.68 2.428 3.237 5.616 3.591 7.032.76 13.913 1.67 13.913 10.524 0 14.875-28.839 15.28-28.636-.303h8.752zm13.307-16.95h.657c-3.794-7.133-18.416-5.312-18.214 3.238.152 6.072 4.402 6.982 9.563 7.387 4.907.354 9.815.456 9.815 6.578 0 7.842-14.268 9.41-18.264 2.985h-.608c3.643 7.235 19.429 5.616 19.429-2.985 0-6.274-5.11-6.73-10.271-7.134-4.958-.354-9.056-1.164-9.056-6.83-.051-7.944 13.154-9.563 16.949-3.239z" fill="#FFF" fill-rule="evenodd"/></svg>