<svg xmlns="http://www.w3.org/2000/svg" xmlns:xlink="http://www.w3.org/1999/xlink" xmlns:sketch="http://www.bohemiancoding.com/sketch/ns" viewBox="0 0 100 100" version="1.1" x="0px" y="0px"><title>kden-document-code</title><desc>Created with Sketch.</desc><g stroke="none" stroke-width="1" fill="none" fill-rule="evenodd" sketch:type="MSPage"><g sketch:type="MSArtboardGroup" fill="#000000"><path d="M58.9926339,32 C57.3389342,32 56,30.6601521 56,29.0073661 L56,4 L19.6656805,4 C17.6411811,4 16,5.63894638 16,7.66768662 L16,90.3323134 C16,92.3579208 17.6472148,94 19.6800858,94 L80.3199142,94 C82.3523695,94 84,92.3473338 84,90.3223331 L84,32 L58.9926339,32 L58.9926339,32 Z M36.6426426,46.2626763 C36.2537132,46.4364967 35.896437,46.6951194 35.5807159,47.0310857 C35.2648324,47.3665655 35.0018667,47.7886313 34.7989611,48.2857705 C34.5957309,48.783072 34.4926548,49.3637164 34.4926548,50.011327 L34.4926548,55.470779 C34.4926548,55.9791063 34.4231799,56.4553288 34.2863404,56.8861504 C34.1496632,57.3150263 33.9667235,57.6855296 33.742878,57.9874453 C33.5203311,58.287253 33.2610989,58.5218781 32.9721614,58.6853212 C32.6856586,58.847467 32.3860076,58.929675 32.0811622,58.929675 L32,58.929675 L32,61.1316161 L32.0811622,61.1316161 C32.3863323,61.1316161 32.6866326,61.209284 32.9739469,61.3621876 C33.2628845,61.5162262 33.5217921,61.7409604 33.7435273,62.02958 C33.9667235,62.3211183 34.1493385,62.686433 34.2861781,63.1146603 C34.4231799,63.5458062 34.4924925,64.0320817 34.4924925,64.5598666 L34.4924925,69.9893215 C34.4924925,70.6369322 34.5955685,71.2174145 34.7987988,71.7147159 C35.0017044,72.2118552 35.2646701,72.6342452 35.5805535,72.9695629 C35.8961123,73.3055292 36.2535508,73.5639897 36.6424803,73.7378101 C37.0320591,73.9117926 37.4271569,74 37.8167357,74 L40,74 L40,72.0378726 L38.4173363,72.0378726 C38.1379758,72.0378726 37.9129941,71.9684742 37.748397,71.8317852 C37.5784433,71.690394 37.4394935,71.4982511 37.3354436,71.261356 C37.228634,71.0191101 37.1549387,70.7442728 37.1163055,70.4436543 C37.0768606,70.1410901 37.0568947,69.8367423 37.0568947,69.5392046 L37.0568947,64.0797526 C37.0568947,63.3129647 36.9486243,62.6661648 36.7353299,62.1583239 C36.5225225,61.652753 36.2701079,61.2360381 35.9847415,60.92034 C35.6982388,60.6041556 35.4019966,60.3706655 35.1039688,60.2270042 C34.8794741,60.1190151 34.6893921,60.0465359 34.5283662,60.0074587 C34.6906907,59.953302 34.8849931,59.8639596 35.1080269,59.7407287 C35.4050808,59.5769614 35.7001867,59.3288782 35.9857154,59.0031271 C36.2705949,58.6781867 36.5226848,58.2624447 36.7351676,57.7669269 C36.9487866,57.2693012 37.0570571,56.6580112 37.0570571,55.9500822 L37.0570571,50.4607954 C37.0570571,50.1433138 37.077023,49.8289129 37.1164678,49.5260244 C37.1549387,49.2257302 37.2284717,48.9560816 37.3349566,48.7243752 C37.4388442,48.4973709 37.5779563,48.3102546 37.748397,48.1680526 C37.9129941,48.0313636 38.1379758,47.9619652 38.4173363,47.9619652 L40,47.9619652 L40,46 L37.8167357,46 C37.4271569,46.0008107 37.0320591,46.0888559 36.6426426,46.2626763 L36.6426426,46.2626763 L36.6426426,46.2626763 Z M67.9183524,58.9296734 C67.6122147,58.9296734 67.3120828,58.8520037 67.0257482,58.6990966 C66.7368165,58.5455409 66.4782388,58.3162613 66.256995,58.0174195 C66.0328295,57.7161455 65.8498935,57.3454714 65.7135437,56.9160991 C65.5763823,56.4870512 65.5072334,56.0007644 65.5072334,55.4708594 L65.5072334,50.0114431 C65.5072334,49.3652768 65.4041595,48.7846189 65.200771,48.2858466 C64.9977072,47.7891823 64.7347469,47.3671068 64.4191945,47.0311327 C64.1028305,46.6949965 63.7455615,46.43653 63.3571269,46.2627056 C62.9677184,46.0888812 62.5724663,46.0006717 62.1830577,46.0006717 L60,46.0006717 L60,47.9626824 L61.5826316,47.9626824 C61.8618241,47.9626824 62.0864766,48.0320824 62.2512326,48.1687746 C62.4205336,48.3098448 62.5591559,48.5016678 62.6643401,48.739217 C62.7704981,48.9809821 62.8440296,49.2561501 62.8834737,49.5567755 C62.9229177,49.8642112 62.9428832,50.1886727 62.9428832,50.5212416 L62.9428832,55.9508223 C62.9428832,56.7181144 63.0511515,57.3649293 63.2644415,57.8721334 C63.4774069,58.3793375 63.7298164,58.7955756 64.0146901,59.1101459 C64.3003754,59.426662 64.5967739,59.6601575 64.8954449,59.8034978 C65.1162017,59.9103544 65.3095262,59.9839703 65.4715228,60.0230484 C65.3088769,60.0773685 65.1145785,60.166713 64.8915492,60.2896224 C64.5940144,60.4540421 64.2989145,60.7019689 64.0140408,61.0272411 C63.7296541,61.3515404 63.4775692,61.7674542 63.2649285,62.26347 C63.0514761,62.7615937 62.9432079,63.37306 62.9432079,64.0803567 L62.9432079,69.5399351 C62.9432079,69.8528839 62.9232424,70.1671299 62.8837983,70.4745657 C62.8448412,70.7751911 62.7713097,71.0451702 62.665314,71.275747 C62.5604545,71.5042159 62.4211829,71.6913366 62.2515573,71.8325689 C62.0871259,71.9695853 61.862311,72.0386611 61.5829563,72.0386611 L60.0003246,72.0386611 L60.0003246,74.0006717 L62.1833824,74.0006717 C62.5724663,74.0006717 62.9677184,73.9124623 63.3574516,73.7384758 C63.7460485,73.5648135 64.1033174,73.306347 64.4195191,72.9702108 C64.7350715,72.6343989 64.9980319,72.2121612 65.2010957,71.7153347 C65.4044841,71.2168867 65.5075581,70.636391 65.5075581,69.9899004 L65.5075581,64.5603197 C65.5075581,64.0513319 65.5771939,63.5802872 65.7138683,63.1604818 C65.8502181,62.7414871 66.0331541,62.3758397 66.257482,62.0737549 C66.4793751,61.7745888 66.7387643,61.5399583 67.0280207,61.3761872 C67.3151669,61.2138754 67.6146495,61.1316655 67.9188394,61.1316655 L68,61.1316655 L68,58.9296734 L67.9183524,58.9296734 L67.9183524,58.9296734 Z M42,67 C43.1045695,67 44,66.1045695 44,65 C44,63.8954305 43.1045695,63 42,63 C40.8954305,63 40,63.8954305 40,65 C40,66.1045695 40.8954305,67 42,67 L42,67 L42,67 Z M50,67 C51.1045695,67 52,66.1045695 52,65 C52,63.8954305 51.1045695,63 50,63 C48.8954305,63 48,63.8954305 48,65 C48,66.1045695 48.8954305,67 50,67 L50,67 L50,67 Z M58,67 C59.1045695,67 60,66.1045695 60,65 C60,63.8954305 59.1045695,63 58,63 C56.8954305,63 56,63.8954305 56,65 C56,66.1045695 56.8954305,67 58,67 L58,67 L58,67 Z M84,28 L62.0049466,28 C60.8976452,28 60,27.1029738 60,25.9950534 L60,4 L84,28 L84,28 Z" sketch:type="MSShapeGroup"></path></g></g></svg>