<svg xmlns="http://www.w3.org/2000/svg" xmlns:xlink="http://www.w3.org/1999/xlink" xmlns:sketch="http://www.bohemiancoding.com/sketch/ns" viewBox="0 0 100 100" version="1.1" x="0px" y="0px"><title>kden-document-lock</title><desc>Created with Sketch.</desc><g stroke="none" stroke-width="1" fill="none" fill-rule="evenodd" sketch:type="MSPage"><g sketch:type="MSArtboardGroup" fill="#000000"><path d="M52,69.4648712 L52,72.59375 L48,72.59375 L48,69.4648712 C46.8043973,68.7732524 46,67.4805647 46,66 C46,63.790861 47.790861,62 50,62 C52.209139,62 54,63.790861 54,66 C54,67.4805647 53.1956027,68.7732524 52,69.4648712 L52,69.4648712 L52,69.4648712 Z M60,58.0476467 L60,51.990642 C60,46.4848705 55.5228475,42 50,42 C44.4759382,42 40,46.4729628 40,51.990642 L40,58.0474395 C37.7313509,58.3713586 36,60.3148025 36,62.6638703 L36,73.3361297 C36,75.9162486 38.0911913,78 40.6708065,78 L59.3291935,78 C61.9183245,78 64,75.9119141 64,73.3361297 L64,62.6638703 C64,60.311574 62.2618054,58.3718574 60,58.0476467 L60,58.0476467 L60,58.0476467 Z M44.1666667,58 L44.1666667,51.4503922 C44.1666667,48.2331169 46.7848944,45.625 50,45.625 C53.221661,45.625 55.8333333,48.2332918 55.8333333,51.4503922 L55.8333333,58 L44.1666667,58 L44.1666667,58 Z M58.9926339,32 C57.3389342,32 56,30.6601521 56,29.0073661 L56,4 L19.6656805,4 C17.6411811,4 16,5.63894638 16,7.66768662 L16,90.3323134 C16,92.3579208 17.6472148,94 19.6800858,94 L80.3199142,94 C82.3523695,94 84,92.3473338 84,90.3223331 L84,32 L58.9926339,32 L58.9926339,32 Z M84,28 L62.0049466,28 C60.8976452,28 60,27.1029738 60,25.9950534 L60,4 L84,28 L84,28 Z" sketch:type="MSShapeGroup"></path></g></g></svg>